<?xml version="1.0" encoding="UTF-8" standalone="no"?>
<!-- Created with Inkscape (http://www.inkscape.org/) -->

<svg
   xmlns:dc="http://purl.org/dc/elements/1.1/"
   xmlns:cc="http://creativecommons.org/ns#"
   xmlns:rdf="http://www.w3.org/1999/02/22-rdf-syntax-ns#"
   xmlns:svg="http://www.w3.org/2000/svg"
   xmlns="http://www.w3.org/2000/svg"
   xmlns:sodipodi="http://sodipodi.sourceforge.net/DTD/sodipodi-0.dtd"
   xmlns:inkscape="http://www.inkscape.org/namespaces/inkscape"
   width="210mm"
   height="297mm"
   viewBox="0 0 210 297"
   version="1.1"
   id="svg317"
   inkscape:version="0.92.4 (5da689c313, 2019-01-14)"
   sodipodi:docname="coal.svg">
  <defs
     id="defs311" />
  <sodipodi:namedview
     id="base"
     pagecolor="#ffffff"
     bordercolor="#666666"
     borderopacity="1.0"
     inkscape:pageopacity="0.0"
     inkscape:pageshadow="2"
     inkscape:zoom="0.35"
     inkscape:cx="424.28571"
     inkscape:cy="535.71429"
     inkscape:document-units="mm"
     inkscape:current-layer="layer1"
     showgrid="false"
     inkscape:window-width="1366"
     inkscape:window-height="705"
     inkscape:window-x="-8"
     inkscape:window-y="-8"
     inkscape:window-maximized="1" />
  <metadata
     id="metadata314">
    <rdf:RDF>
      <cc:Work
         rdf:about="">
        <dc:format>image/svg+xml</dc:format>
        <dc:type
           rdf:resource="http://purl.org/dc/dcmitype/StillImage" />
        <dc:title></dc:title>
      </cc:Work>
    </rdf:RDF>
  </metadata>
  <g
     inkscape:label="Layer 1"
     inkscape:groupmode="layer"
     id="layer1">
    <g
       id="XMLID_54_"
       transform="matrix(0.26458333,0,0,0.26458333,-190.65875,41.650626)">
      <polygon
         points="1279.7,338.2 1249.9,349.3 1241.8,366.5 1254.2,375.7 "
         class="st13"
         id="XMLID_53_"
         style="fill:#282828" />
      <polygon
         points="995.9,463.7 1021.9,420.9 1000.3,328.9 957.1,323.3 "
         class="st14"
         id="XMLID_48_"
         style="fill:#444444" />
      <polygon
         points="1000.3,328.9 1021.9,420.9 1102.5,386.8 1122.3,333.8 1105.8,283 1034.6,270.2 "
         class="st15"
         id="XMLID_46_"
         style="fill:#414042" />
      <g
         id="XMLID_40_">
        <polygon
           points="1105.8,481.4 1175.8,325.2 1105.8,336.5 1060.9,403.3 1058.7,481.4 "
           class="st14"
           id="XMLID_35_"
           style="fill:#444444" />
        <polygon
           points="1141.9,362.8 1175.8,325.2 1250.7,369.2 1288.5,439.5 1288.5,481.4 1105.8,481.4 1105.8,407.8 "
           class="st15"
           id="XMLID_34_"
           style="fill:#414042" />
        <polygon
           points="1105.8,407.8 1175.8,325.2 1105.8,336.5 1060.9,403.3 "
           class="st16"
           id="XMLID_32_"
           style="fill:#606161" />
      </g>
      <g
         id="XMLID_39_">
        <polygon
           points="1324.1,427 1292.8,405.4 1239.1,422.9 1229.4,476.3 1319.6,484.5 "
           class="st15"
           id="XMLID_37_"
           style="fill:#414042" />
        <polygon
           points="1266.7,386.8 1222,410.7 1239.1,422.9 1292.8,405.4 "
           class="st17"
           id="XMLID_36_"
           style="fill:#767778" />
        <polygon
           points="1209.9,464.2 1229.4,476.3 1239.1,422.9 1222,410.7 "
           class="st18"
           id="XMLID_38_"
           style="fill:#555656" />
      </g>
      <g
         id="XMLID_44_">
        <polygon
           points="1122.3,427 1068.9,405.3 1025.7,438.2 1018.2,481.5 1132.9,481.5 "
           class="st15"
           id="XMLID_42_"
           style="fill:#414042" />
        <polygon
           points="1000.3,438.2 984.6,481.5 1018.2,481.5 1025.7,438.2 "
           class="st14"
           id="XMLID_41_"
           style="fill:#444444" />
        <polygon
           points="1061.6,389.2 1068.9,405.3 1025.7,438.2 1000.3,438.2 "
           class="st16"
           id="XMLID_43_"
           style="fill:#606161" />
        <polygon
           points="1061.6,389.2 1122.3,427 1068.9,405.3 "
           class="st19"
           id="XMLID_45_"
           style="fill:#7e7f7f" />
      </g>
      <polygon
         points="993.8,260.5 957.1,323.3 1000.3,328.9 1034.6,270.2 "
         class="st16"
         id="XMLID_47_"
         style="fill:#606161" />
      <polygon
         points="1201.5,260.5 1219.8,270.2 1249.9,307.5 1249.9,349.3 1241.8,366.5 1145.7,328.9 1145.7,294.7 "
         class="st15"
         id="XMLID_50_"
         style="fill:#414042" />
      <polygon
         points="1232.1,245.7 1249.9,256.5 1219.8,270.2 1201.5,260.5 "
         class="st20"
         id="XMLID_49_"
         style="fill:#7d7d7d" />
      <polygon
         points="1279.7,294.7 1249.9,307.5 1219.8,270.2 1249.9,256.5 "
         class="st16"
         id="XMLID_51_"
         style="fill:#606161" />
      <polygon
         points="1279.7,338.2 1279.7,294.7 1249.9,307.5 1249.9,349.3 "
         class="st14"
         id="XMLID_52_"
         style="fill:#444444" />
    </g>
  </g>
</svg>
